<svg xmlns="http://www.w3.org/2000/svg" xmlns:xlink="http://www.w3.org/1999/xlink" width="2000" zoomAndPan="magnify" viewBox="0 0 1500 1499.999933" height="2000" preserveAspectRatio="xMidYMid meet" version="1.0"><defs><clipPath id="0ac03798c4"><path d="M 14.402344 416.976562 L 1485.902344 416.976562 L 1485.902344 1082.976562 L 14.402344 1082.976562 Z M 14.402344 416.976562 " clip-rule="nonzero"/></clipPath><clipPath id="a3064a013f"><path d="M 652 416.976562 L 820 416.976562 L 820 667 L 652 667 Z M 652 416.976562 " clip-rule="nonzero"/></clipPath><clipPath id="0f095cee46"><path d="M 14.402344 916 L 1485.902344 916 L 1485.902344 1082.976562 L 14.402344 1082.976562 Z M 14.402344 916 " clip-rule="nonzero"/></clipPath><clipPath id="64cc65faba"><path d="M 791 416.976562 L 903 416.976562 L 903 445 L 791 445 Z M 791 416.976562 " clip-rule="nonzero"/></clipPath></defs><g clip-path="url(#0ac03798c4)"><path fill="#f97316" d="M 1457.671875 1055.269531 L 1457.671875 999.765625 L 1429.917969 999.765625 L 1429.917969 944.261719 L 1402.167969 944.261719 L 1402.167969 916.511719 L 1374.414062 916.511719 L 1374.414062 888.757812 L 1318.910156 888.757812 L 1318.910156 861.007812 L 1235.65625 861.007812 L 1235.65625 888.757812 L 1180.152344 888.757812 L 1180.152344 916.511719 L 1152.398438 916.511719 L 1152.398438 833.253906 L 1124.648438 833.253906 L 1124.648438 750 L 1096.894531 750 L 1096.894531 722.246094 L 1041.390625 722.246094 L 1041.390625 694.496094 L 985.886719 694.496094 L 985.886719 638.992188 L 1013.640625 638.992188 L 1013.640625 611.238281 L 1041.390625 611.238281 L 1041.390625 555.734375 L 1013.640625 555.734375 L 1013.640625 527.984375 L 985.886719 527.984375 L 985.886719 472.480469 L 958.136719 472.480469 L 958.136719 444.726562 L 902.632812 444.726562 L 902.632812 416.976562 L 736.121094 416.976562 L 736.121094 444.726562 L 652.863281 444.726562 L 652.863281 472.480469 L 625.113281 472.480469 L 625.113281 527.984375 L 597.359375 527.984375 L 597.359375 555.734375 L 514.105469 555.734375 L 514.105469 583.488281 L 458.601562 583.488281 L 458.601562 611.238281 L 430.847656 611.238281 L 430.847656 694.496094 L 403.097656 694.496094 L 403.097656 666.742188 L 319.839844 666.742188 L 319.839844 694.496094 L 264.335938 694.496094 L 264.335938 722.246094 L 236.585938 722.246094 L 236.585938 750 L 208.832031 750 L 208.832031 833.253906 L 181.082031 833.253906 L 181.082031 861.007812 L 153.328125 861.007812 L 153.328125 888.757812 L 125.578125 888.757812 L 125.578125 972.015625 L 153.328125 972.015625 L 153.328125 999.765625 L 97.824219 999.765625 L 97.824219 1027.519531 L 42.320312 1027.519531 L 42.320312 1055.269531 L 14.570312 1055.269531 L 14.570312 1083.023438 L 1485.421875 1083.023438 L 1485.421875 1055.269531 Z M 1457.671875 1055.269531 " fill-opacity="1" fill-rule="nonzero"/></g><path fill="#c2410c" d="M 236.585938 750 L 264.335938 750 L 264.335938 777.75 L 236.585938 777.75 Z M 236.585938 750 " fill-opacity="1" fill-rule="nonzero"/><path fill="#c2410c" d="M 292.089844 722.246094 L 319.839844 722.246094 L 319.839844 694.496094 L 264.335938 694.496094 L 264.335938 750 L 292.089844 750 Z M 292.089844 722.246094 " fill-opacity="1" fill-rule="nonzero"/><path fill="#c2410c" d="M 264.335938 777.75 L 264.335938 805.503906 L 319.839844 805.503906 L 319.839844 750 L 292.089844 750 L 292.089844 777.75 Z M 264.335938 777.75 " fill-opacity="1" fill-rule="nonzero"/><path fill="#c2410c" d="M 347.59375 833.253906 L 347.59375 861.007812 L 403.097656 861.007812 L 403.097656 833.253906 L 375.34375 833.253906 L 375.34375 805.503906 L 319.839844 805.503906 L 319.839844 833.253906 Z M 347.59375 833.253906 " fill-opacity="1" fill-rule="nonzero"/><path fill="#c2410c" d="M 181.082031 861.007812 L 208.832031 861.007812 L 208.832031 888.757812 L 181.082031 888.757812 Z M 181.082031 861.007812 " fill-opacity="1" fill-rule="nonzero"/><path fill="#c2410c" d="M 208.832031 972.015625 L 208.832031 944.261719 L 181.082031 944.261719 L 181.082031 888.757812 L 153.328125 888.757812 L 153.328125 972.015625 L 181.082031 972.015625 L 181.082031 999.765625 L 236.585938 999.765625 L 236.585938 972.015625 Z M 208.832031 972.015625 " fill-opacity="1" fill-rule="nonzero"/><path fill="#c2410c" d="M 236.585938 999.765625 L 292.089844 999.765625 L 292.089844 1027.519531 L 236.585938 1027.519531 Z M 236.585938 999.765625 " fill-opacity="1" fill-rule="nonzero"/><path fill="#c2410c" d="M 430.847656 916.511719 L 403.097656 916.511719 L 403.097656 999.765625 L 375.34375 999.765625 L 375.34375 1027.519531 L 292.089844 1027.519531 L 292.089844 1055.269531 L 430.847656 1055.269531 L 430.847656 1027.519531 L 458.601562 1027.519531 L 458.601562 999.765625 L 430.847656 999.765625 Z M 430.847656 916.511719 " fill-opacity="1" fill-rule="nonzero"/><path fill="#c2410c" d="M 97.824219 999.765625 L 181.082031 999.765625 L 181.082031 1027.519531 L 97.824219 1027.519531 Z M 97.824219 999.765625 " fill-opacity="1" fill-rule="nonzero"/><path fill="#c2410c" d="M 42.320312 1027.519531 L 97.824219 1027.519531 L 97.824219 1055.269531 L 42.320312 1055.269531 Z M 42.320312 1027.519531 " fill-opacity="1" fill-rule="nonzero"/><path fill="#c2410c" d="M 208.832031 888.757812 L 236.585938 888.757812 L 236.585938 916.511719 L 208.832031 916.511719 Z M 208.832031 888.757812 " fill-opacity="1" fill-rule="nonzero"/><path fill="#c2410c" d="M 292.089844 972.015625 L 319.839844 972.015625 L 319.839844 999.765625 L 292.089844 999.765625 Z M 292.089844 972.015625 " fill-opacity="1" fill-rule="nonzero"/><path fill="#c2410c" d="M 458.601562 611.238281 L 486.351562 611.238281 L 486.351562 694.496094 L 458.601562 694.496094 Z M 458.601562 611.238281 " fill-opacity="1" fill-rule="nonzero"/><path fill="#c2410c" d="M 486.351562 583.488281 L 514.105469 583.488281 L 514.105469 611.238281 L 486.351562 611.238281 Z M 486.351562 583.488281 " fill-opacity="1" fill-rule="nonzero"/><path fill="#c2410c" d="M 430.847656 694.496094 L 458.601562 694.496094 L 458.601562 750 L 430.847656 750 Z M 430.847656 694.496094 " fill-opacity="1" fill-rule="nonzero"/><path fill="#c2410c" d="M 458.601562 750 L 541.855469 750 L 541.855469 777.75 L 458.601562 777.75 Z M 458.601562 750 " fill-opacity="1" fill-rule="nonzero"/><path fill="#c2410c" d="M 541.855469 777.75 L 625.113281 777.75 L 625.113281 805.503906 L 541.855469 805.503906 Z M 541.855469 777.75 " fill-opacity="1" fill-rule="nonzero"/><path fill="#c2410c" d="M 541.855469 722.246094 L 569.609375 722.246094 L 569.609375 750 L 541.855469 750 Z M 541.855469 722.246094 " fill-opacity="1" fill-rule="nonzero"/><path fill="#c2410c" d="M 625.113281 805.503906 L 680.617188 805.503906 L 680.617188 833.253906 L 625.113281 833.253906 Z M 625.113281 805.503906 " fill-opacity="1" fill-rule="nonzero"/><path fill="#c2410c" d="M 652.863281 750 L 680.617188 750 L 680.617188 777.75 L 652.863281 777.75 Z M 652.863281 750 " fill-opacity="1" fill-rule="nonzero"/><path fill="#c2410c" d="M 486.351562 999.765625 L 541.855469 999.765625 L 541.855469 1027.519531 L 486.351562 1027.519531 Z M 486.351562 999.765625 " fill-opacity="1" fill-rule="nonzero"/><path fill="#c2410c" d="M 486.351562 861.007812 L 541.855469 861.007812 L 541.855469 888.757812 L 486.351562 888.757812 Z M 486.351562 861.007812 " fill-opacity="1" fill-rule="nonzero"/><path fill="#c2410c" d="M 514.105469 944.261719 L 514.105469 916.511719 L 486.351562 916.511719 L 486.351562 888.757812 L 458.601562 888.757812 L 458.601562 999.765625 L 486.351562 999.765625 L 486.351562 944.261719 Z M 514.105469 944.261719 " fill-opacity="1" fill-rule="nonzero"/><path fill="#c2410c" d="M 652.863281 888.757812 L 680.617188 888.757812 L 680.617188 916.511719 L 652.863281 916.511719 Z M 652.863281 888.757812 " fill-opacity="1" fill-rule="nonzero"/><path fill="#c2410c" d="M 736.121094 972.015625 L 763.871094 972.015625 L 763.871094 999.765625 L 736.121094 999.765625 Z M 736.121094 972.015625 " fill-opacity="1" fill-rule="nonzero"/><g clip-path="url(#a3064a013f)"><path fill="#c2410c" d="M 680.617188 638.992188 L 708.367188 638.992188 L 708.367188 666.742188 L 819.375 666.742188 L 819.375 638.992188 L 736.121094 638.992188 L 736.121094 583.488281 L 708.367188 583.488281 L 708.367188 527.984375 L 736.121094 527.984375 L 736.121094 472.480469 L 763.871094 472.480469 L 763.871094 444.726562 L 791.625 444.726562 L 791.625 416.976562 L 736.121094 416.976562 L 736.121094 444.726562 L 708.367188 444.726562 L 708.367188 472.480469 L 680.617188 472.480469 L 680.617188 527.984375 L 652.863281 527.984375 L 652.863281 583.488281 L 680.617188 583.488281 Z M 680.617188 638.992188 " fill-opacity="1" fill-rule="nonzero"/></g><path fill="#c2410c" d="M 819.375 611.238281 L 930.382812 611.238281 L 930.382812 638.992188 L 819.375 638.992188 Z M 819.375 611.238281 " fill-opacity="1" fill-rule="nonzero"/><path fill="#c2410c" d="M 958.136719 638.992188 L 985.886719 638.992188 L 985.886719 666.742188 L 958.136719 666.742188 Z M 958.136719 638.992188 " fill-opacity="1" fill-rule="nonzero"/><path fill="#c2410c" d="M 791.625 583.488281 L 819.375 583.488281 L 819.375 611.238281 L 791.625 611.238281 Z M 791.625 583.488281 " fill-opacity="1" fill-rule="nonzero"/><path fill="#c2410c" d="M 847.128906 944.261719 L 847.128906 916.511719 L 819.375 916.511719 L 819.375 861.007812 L 791.625 861.007812 L 791.625 777.75 L 819.375 777.75 L 819.375 722.246094 L 874.878906 722.246094 L 874.878906 694.496094 L 930.382812 694.496094 L 930.382812 666.742188 L 847.128906 666.742188 L 847.128906 694.496094 L 791.625 694.496094 L 791.625 722.246094 L 763.871094 722.246094 L 763.871094 777.75 L 736.121094 777.75 L 736.121094 861.007812 L 763.871094 861.007812 L 763.871094 916.511719 L 791.625 916.511719 L 791.625 944.261719 L 819.375 944.261719 L 819.375 972.015625 L 930.382812 972.015625 L 930.382812 944.261719 Z M 847.128906 944.261719 " fill-opacity="1" fill-rule="nonzero"/><path fill="#c2410c" d="M 985.886719 916.511719 L 958.136719 916.511719 L 958.136719 888.757812 L 930.382812 888.757812 L 930.382812 944.261719 L 985.886719 944.261719 Z M 985.886719 916.511719 " fill-opacity="1" fill-rule="nonzero"/><path fill="#c2410c" d="M 1180.152344 916.511719 L 1207.902344 916.511719 L 1207.902344 999.765625 L 1180.152344 999.765625 Z M 1180.152344 916.511719 " fill-opacity="1" fill-rule="nonzero"/><path fill="#c2410c" d="M 1207.902344 888.757812 L 1235.65625 888.757812 L 1235.65625 916.511719 L 1207.902344 916.511719 Z M 1207.902344 888.757812 " fill-opacity="1" fill-rule="nonzero"/><path fill="#c2410c" d="M 1207.902344 999.765625 L 1263.40625 999.765625 L 1263.40625 1027.519531 L 1207.902344 1027.519531 Z M 1207.902344 999.765625 " fill-opacity="1" fill-rule="nonzero"/><path fill="#c2410c" d="M 1263.40625 1027.519531 L 1402.167969 1027.519531 L 1402.167969 1055.269531 L 1263.40625 1055.269531 Z M 1263.40625 1027.519531 " fill-opacity="1" fill-rule="nonzero"/><path fill="#c2410c" d="M 1263.40625 972.015625 L 1291.160156 972.015625 L 1291.160156 999.765625 L 1263.40625 999.765625 Z M 1263.40625 972.015625 " fill-opacity="1" fill-rule="nonzero"/><path fill="#c2410c" d="M 902.632812 861.007812 L 930.382812 861.007812 L 930.382812 888.757812 L 902.632812 888.757812 Z M 902.632812 861.007812 " fill-opacity="1" fill-rule="nonzero"/><path fill="#c2410c" d="M 902.632812 805.503906 L 874.878906 805.503906 L 874.878906 861.007812 L 902.632812 861.007812 Z M 902.632812 805.503906 " fill-opacity="1" fill-rule="nonzero"/><path fill="#c2410c" d="M 902.632812 777.75 L 930.382812 777.75 L 930.382812 805.503906 L 902.632812 805.503906 Z M 902.632812 777.75 " fill-opacity="1" fill-rule="nonzero"/><path fill="#c2410c" d="M 958.136719 861.007812 L 985.886719 861.007812 L 985.886719 888.757812 L 958.136719 888.757812 Z M 958.136719 861.007812 " fill-opacity="1" fill-rule="nonzero"/><path fill="#c2410c" d="M 985.886719 833.253906 L 1013.640625 833.253906 L 1013.640625 861.007812 L 985.886719 861.007812 Z M 985.886719 833.253906 " fill-opacity="1" fill-rule="nonzero"/><path fill="#c2410c" d="M 541.855469 972.015625 L 569.609375 972.015625 L 569.609375 999.765625 L 541.855469 999.765625 Z M 541.855469 972.015625 " fill-opacity="1" fill-rule="nonzero"/><path fill="#c2410c" d="M 569.609375 916.511719 L 597.359375 916.511719 L 597.359375 972.015625 L 569.609375 972.015625 Z M 569.609375 916.511719 " fill-opacity="1" fill-rule="nonzero"/><path fill="#c2410c" d="M 597.359375 888.757812 L 625.113281 888.757812 L 625.113281 916.511719 L 597.359375 916.511719 Z M 597.359375 888.757812 " fill-opacity="1" fill-rule="nonzero"/><path fill="#c2410c" d="M 597.359375 972.015625 L 652.863281 972.015625 L 652.863281 999.765625 L 597.359375 999.765625 Z M 597.359375 972.015625 " fill-opacity="1" fill-rule="nonzero"/><path fill="#c2410c" d="M 652.863281 944.261719 L 680.617188 944.261719 L 680.617188 972.015625 L 652.863281 972.015625 Z M 652.863281 944.261719 " fill-opacity="1" fill-rule="nonzero"/><path fill="#c2410c" d="M 1096.894531 972.015625 L 1096.894531 999.765625 L 1041.390625 999.765625 L 1041.390625 1027.519531 L 958.136719 1027.519531 L 958.136719 999.765625 L 985.886719 999.765625 L 985.886719 972.015625 L 930.382812 972.015625 L 930.382812 1027.519531 L 541.855469 1027.519531 L 541.855469 1055.269531 L 1152.398438 1055.269531 L 1152.398438 1027.519531 L 1124.648438 1027.519531 L 1124.648438 999.765625 L 1152.398438 999.765625 L 1152.398438 972.015625 Z M 1096.894531 972.015625 " fill-opacity="1" fill-rule="nonzero"/><path fill="#c2410c" d="M 1069.144531 944.261719 L 1096.894531 944.261719 L 1096.894531 972.015625 L 1069.144531 972.015625 Z M 1069.144531 944.261719 " fill-opacity="1" fill-rule="nonzero"/><path fill="#c2410c" d="M 1124.648438 916.511719 L 1152.398438 916.511719 L 1152.398438 944.261719 L 1124.648438 944.261719 Z M 1124.648438 916.511719 " fill-opacity="1" fill-rule="nonzero"/><path fill="#c2410c" d="M 985.886719 944.261719 L 1013.640625 944.261719 L 1013.640625 972.015625 L 985.886719 972.015625 Z M 985.886719 944.261719 " fill-opacity="1" fill-rule="nonzero"/><g clip-path="url(#0f095cee46)"><path fill="#1a1a1a" d="M 1429.917969 1055.269531 L 1429.917969 1027.519531 L 1402.167969 1027.519531 L 1402.167969 1055.269531 L 1263.40625 1055.269531 L 1263.40625 1027.519531 L 1207.902344 1027.519531 L 1207.902344 999.765625 L 1180.152344 999.765625 L 1180.152344 916.511719 L 1152.398438 916.511719 L 1152.398438 999.765625 L 1124.648438 999.765625 L 1124.648438 1027.519531 L 1152.398438 1027.519531 L 1152.398438 1055.269531 L 958.136719 1055.269531 L 958.136719 1027.519531 L 930.382812 1027.519531 L 930.382812 999.765625 L 958.136719 999.765625 L 958.136719 972.015625 L 985.886719 972.015625 L 985.886719 944.261719 L 930.382812 944.261719 L 930.382812 972.015625 L 819.375 972.015625 L 819.375 999.765625 L 874.878906 999.765625 L 874.878906 1027.519531 L 902.632812 1027.519531 L 902.632812 1055.269531 L 541.855469 1055.269531 L 541.855469 1027.519531 L 486.351562 1027.519531 L 486.351562 999.765625 L 458.601562 999.765625 L 458.601562 1027.519531 L 430.847656 1027.519531 L 430.847656 1055.269531 L 292.089844 1055.269531 L 292.089844 1027.519531 L 236.585938 1027.519531 L 236.585938 999.765625 L 181.082031 999.765625 L 181.082031 1027.519531 L 208.832031 1027.519531 L 208.832031 1055.269531 L 14.570312 1055.269531 L 14.570312 1083.023438 L 1485.421875 1083.023438 L 1485.421875 1055.269531 Z M 1429.917969 1055.269531 " fill-opacity="1" fill-rule="nonzero"/></g><path fill="#1a1a1a" d="M 403.097656 694.496094 L 430.847656 694.496094 L 430.847656 750 L 403.097656 750 Z M 403.097656 694.496094 " fill-opacity="1" fill-rule="nonzero"/><path fill="#1a1a1a" d="M 430.847656 750 L 458.601562 750 L 458.601562 777.75 L 430.847656 777.75 Z M 430.847656 750 " fill-opacity="1" fill-rule="nonzero"/><path fill="#1a1a1a" d="M 430.847656 611.238281 L 458.601562 611.238281 L 458.601562 694.496094 L 430.847656 694.496094 Z M 430.847656 611.238281 " fill-opacity="1" fill-rule="nonzero"/><path fill="#1a1a1a" d="M 458.601562 583.488281 L 486.351562 583.488281 L 486.351562 611.238281 L 458.601562 611.238281 Z M 458.601562 583.488281 " fill-opacity="1" fill-rule="nonzero"/><path fill="#1a1a1a" d="M 1180.152344 888.757812 L 1207.902344 888.757812 L 1207.902344 916.511719 L 1180.152344 916.511719 Z M 1180.152344 888.757812 " fill-opacity="1" fill-rule="nonzero"/><path fill="#1a1a1a" d="M 680.617188 638.992188 L 680.617188 583.488281 L 652.863281 583.488281 L 652.863281 527.984375 L 680.617188 527.984375 L 680.617188 472.480469 L 708.367188 472.480469 L 708.367188 444.726562 L 652.863281 444.726562 L 652.863281 472.480469 L 625.113281 472.480469 L 625.113281 527.984375 L 597.359375 527.984375 L 597.359375 583.488281 L 625.113281 583.488281 L 625.113281 638.992188 L 652.863281 638.992188 L 652.863281 666.742188 L 708.367188 666.742188 L 708.367188 638.992188 Z M 680.617188 638.992188 " fill-opacity="1" fill-rule="nonzero"/><path fill="#1a1a1a" d="M 125.578125 888.757812 L 153.328125 888.757812 L 153.328125 972.015625 L 125.578125 972.015625 Z M 125.578125 888.757812 " fill-opacity="1" fill-rule="nonzero"/><path fill="#1a1a1a" d="M 153.328125 861.007812 L 181.082031 861.007812 L 181.082031 888.757812 L 153.328125 888.757812 Z M 153.328125 861.007812 " fill-opacity="1" fill-rule="nonzero"/><path fill="#1a1a1a" d="M 153.328125 972.015625 L 181.082031 972.015625 L 181.082031 999.765625 L 153.328125 999.765625 Z M 153.328125 972.015625 " fill-opacity="1" fill-rule="nonzero"/><path fill="#1a1a1a" d="M 319.839844 833.253906 L 347.59375 833.253906 L 347.59375 861.007812 L 319.839844 861.007812 Z M 319.839844 833.253906 " fill-opacity="1" fill-rule="nonzero"/><path fill="#1a1a1a" d="M 930.382812 666.742188 L 985.886719 666.742188 L 985.886719 694.496094 L 930.382812 694.496094 Z M 930.382812 666.742188 " fill-opacity="1" fill-rule="nonzero"/><path fill="#1a1a1a" d="M 985.886719 916.511719 L 1013.640625 916.511719 L 1013.640625 944.261719 L 985.886719 944.261719 Z M 985.886719 916.511719 " fill-opacity="1" fill-rule="nonzero"/><path fill="#1a1a1a" d="M 458.601562 888.757812 L 486.351562 888.757812 L 486.351562 861.007812 L 541.855469 861.007812 L 541.855469 833.253906 L 625.113281 833.253906 L 625.113281 805.503906 L 541.855469 805.503906 L 541.855469 777.75 L 458.601562 777.75 L 458.601562 805.503906 L 486.351562 805.503906 L 486.351562 833.253906 L 458.601562 833.253906 L 458.601562 861.007812 L 430.847656 861.007812 L 430.847656 888.757812 L 403.097656 888.757812 L 403.097656 916.511719 L 430.847656 916.511719 L 430.847656 999.765625 L 458.601562 999.765625 Z M 458.601562 888.757812 " fill-opacity="1" fill-rule="nonzero"/><path fill="#1a1a1a" d="M 236.585938 722.246094 L 264.335938 722.246094 L 264.335938 750 L 236.585938 750 Z M 236.585938 722.246094 " fill-opacity="1" fill-rule="nonzero"/><path fill="#1a1a1a" d="M 680.617188 861.007812 L 680.617188 888.757812 L 708.367188 888.757812 L 708.367188 916.511719 L 736.121094 916.511719 L 736.121094 944.261719 L 763.871094 944.261719 L 763.871094 972.015625 L 819.375 972.015625 L 819.375 944.261719 L 791.625 944.261719 L 791.625 916.511719 L 763.871094 916.511719 L 763.871094 861.007812 L 736.121094 861.007812 L 736.121094 777.75 L 763.871094 777.75 L 763.871094 722.246094 L 791.625 722.246094 L 791.625 694.496094 L 847.128906 694.496094 L 847.128906 666.742188 L 930.382812 666.742188 L 930.382812 638.992188 L 819.375 638.992188 L 819.375 666.742188 L 708.367188 666.742188 L 708.367188 750 L 680.617188 750 L 680.617188 833.253906 L 625.113281 833.253906 L 625.113281 861.007812 Z M 680.617188 861.007812 " fill-opacity="1" fill-rule="nonzero"/><path fill="#1a1a1a" d="M 236.585938 861.007812 L 236.585938 833.253906 L 319.839844 833.253906 L 319.839844 805.503906 L 264.335938 805.503906 L 264.335938 777.75 L 236.585938 777.75 L 236.585938 750 L 208.832031 750 L 208.832031 833.253906 L 181.082031 833.253906 L 181.082031 861.007812 Z M 236.585938 861.007812 " fill-opacity="1" fill-rule="nonzero"/><g clip-path="url(#64cc65faba)"><path fill="#fdba74" d="M 791.625 416.976562 L 902.632812 416.976562 L 902.632812 444.726562 L 791.625 444.726562 Z M 791.625 416.976562 " fill-opacity="1" fill-rule="nonzero"/></g><path fill="#fdba74" d="M 902.632812 444.726562 L 958.136719 444.726562 L 958.136719 472.480469 L 902.632812 472.480469 Z M 902.632812 444.726562 " fill-opacity="1" fill-rule="nonzero"/><path fill="#fdba74" d="M 874.878906 472.480469 L 902.632812 472.480469 L 902.632812 500.230469 L 874.878906 500.230469 Z M 874.878906 472.480469 " fill-opacity="1" fill-rule="nonzero"/><path fill="#fdba74" d="M 958.136719 472.480469 L 985.886719 472.480469 L 985.886719 527.984375 L 958.136719 527.984375 Z M 958.136719 472.480469 " fill-opacity="1" fill-rule="nonzero"/><path fill="#fdba74" d="M 930.382812 527.984375 L 958.136719 527.984375 L 958.136719 555.734375 L 930.382812 555.734375 Z M 930.382812 527.984375 " fill-opacity="1" fill-rule="nonzero"/><path fill="#fdba74" d="M 930.382812 500.230469 L 958.136719 500.230469 L 958.136719 527.984375 L 930.382812 527.984375 Z M 930.382812 500.230469 " fill-opacity="1" fill-rule="nonzero"/><path fill="#fdba74" d="M 847.128906 444.726562 L 874.878906 444.726562 L 874.878906 472.480469 L 847.128906 472.480469 Z M 847.128906 444.726562 " fill-opacity="1" fill-rule="nonzero"/><path fill="#fdba74" d="M 819.375 472.480469 L 847.128906 472.480469 L 847.128906 500.230469 L 819.375 500.230469 Z M 819.375 472.480469 " fill-opacity="1" fill-rule="nonzero"/><path fill="#fdba74" d="M 763.871094 444.726562 L 791.625 444.726562 L 791.625 472.480469 L 763.871094 472.480469 Z M 763.871094 444.726562 " fill-opacity="1" fill-rule="nonzero"/><path fill="#fdba74" d="M 985.886719 555.734375 L 1013.640625 555.734375 L 1013.640625 583.488281 L 985.886719 583.488281 Z M 985.886719 555.734375 " fill-opacity="1" fill-rule="nonzero"/><path fill="#fdba74" d="M 958.136719 583.488281 L 985.886719 583.488281 L 985.886719 611.238281 L 958.136719 611.238281 Z M 958.136719 583.488281 " fill-opacity="1" fill-rule="nonzero"/><path fill="#fdba74" d="M 736.121094 472.480469 L 763.871094 472.480469 L 763.871094 500.230469 L 736.121094 500.230469 Z M 736.121094 472.480469 " fill-opacity="1" fill-rule="nonzero"/><path fill="#fdba74" d="M 985.886719 527.984375 L 1013.640625 527.984375 L 1013.640625 555.734375 L 985.886719 555.734375 Z M 985.886719 527.984375 " fill-opacity="1" fill-rule="nonzero"/><path fill="#fdba74" d="M 1013.640625 555.734375 L 1041.390625 555.734375 L 1041.390625 611.238281 L 1013.640625 611.238281 Z M 1013.640625 555.734375 " fill-opacity="1" fill-rule="nonzero"/><path fill="#fdba74" d="M 985.886719 611.238281 L 1013.640625 611.238281 L 1013.640625 638.992188 L 985.886719 638.992188 Z M 985.886719 611.238281 " fill-opacity="1" fill-rule="nonzero"/><path fill="#fdba74" d="M 985.886719 694.496094 L 1041.390625 694.496094 L 1041.390625 722.246094 L 985.886719 722.246094 Z M 985.886719 694.496094 " fill-opacity="1" fill-rule="nonzero"/><path fill="#fdba74" d="M 1041.390625 722.246094 L 1096.894531 722.246094 L 1096.894531 750 L 1041.390625 750 Z M 1041.390625 722.246094 " fill-opacity="1" fill-rule="nonzero"/><path fill="#fdba74" d="M 1096.894531 750 L 1124.648438 750 L 1124.648438 833.253906 L 1096.894531 833.253906 Z M 1096.894531 750 " fill-opacity="1" fill-rule="nonzero"/><path fill="#fdba74" d="M 1124.648438 833.253906 L 1152.398438 833.253906 L 1152.398438 916.511719 L 1124.648438 916.511719 Z M 1124.648438 833.253906 " fill-opacity="1" fill-rule="nonzero"/><path fill="#fdba74" d="M 958.136719 722.246094 L 985.886719 722.246094 L 985.886719 750 L 958.136719 750 Z M 958.136719 722.246094 " fill-opacity="1" fill-rule="nonzero"/><path fill="#fdba74" d="M 1013.640625 750 L 1041.390625 750 L 1041.390625 777.75 L 1013.640625 777.75 Z M 1013.640625 750 " fill-opacity="1" fill-rule="nonzero"/><path fill="#fdba74" d="M 930.382812 694.496094 L 958.136719 694.496094 L 958.136719 722.246094 L 930.382812 722.246094 Z M 930.382812 694.496094 " fill-opacity="1" fill-rule="nonzero"/><path fill="#fdba74" d="M 1069.144531 750 L 1096.894531 750 L 1096.894531 777.75 L 1069.144531 777.75 Z M 1069.144531 750 " fill-opacity="1" fill-rule="nonzero"/><path fill="#fdba74" d="M 1041.390625 777.75 L 1069.144531 777.75 L 1069.144531 805.503906 L 1041.390625 805.503906 Z M 1041.390625 777.75 " fill-opacity="1" fill-rule="nonzero"/><path fill="#fdba74" d="M 1069.144531 833.253906 L 1096.894531 833.253906 L 1096.894531 861.007812 L 1069.144531 861.007812 Z M 1069.144531 833.253906 " fill-opacity="1" fill-rule="nonzero"/><path fill="#fdba74" d="M 1235.65625 861.007812 L 1318.910156 861.007812 L 1318.910156 888.757812 L 1235.65625 888.757812 Z M 1235.65625 861.007812 " fill-opacity="1" fill-rule="nonzero"/><path fill="#fdba74" d="M 1318.910156 888.757812 L 1374.414062 888.757812 L 1374.414062 916.511719 L 1318.910156 916.511719 Z M 1318.910156 888.757812 " fill-opacity="1" fill-rule="nonzero"/><path fill="#fdba74" d="M 1291.160156 916.511719 L 1318.910156 916.511719 L 1318.910156 944.261719 L 1291.160156 944.261719 Z M 1291.160156 916.511719 " fill-opacity="1" fill-rule="nonzero"/><path fill="#fdba74" d="M 1374.414062 916.511719 L 1402.167969 916.511719 L 1402.167969 944.261719 L 1374.414062 944.261719 Z M 1374.414062 916.511719 " fill-opacity="1" fill-rule="nonzero"/><path fill="#fdba74" d="M 1402.167969 944.261719 L 1429.917969 944.261719 L 1429.917969 999.765625 L 1402.167969 999.765625 Z M 1402.167969 944.261719 " fill-opacity="1" fill-rule="nonzero"/><path fill="#fdba74" d="M 1429.917969 999.765625 L 1457.671875 999.765625 L 1457.671875 1027.519531 L 1429.917969 1027.519531 Z M 1429.917969 999.765625 " fill-opacity="1" fill-rule="nonzero"/><path fill="#fdba74" d="M 541.855469 583.488281 L 597.359375 583.488281 L 597.359375 555.734375 L 514.105469 555.734375 L 514.105469 611.238281 L 541.855469 611.238281 Z M 541.855469 583.488281 " fill-opacity="1" fill-rule="nonzero"/><path fill="#fdba74" d="M 319.839844 694.496094 L 319.839844 722.246094 L 347.59375 722.246094 L 347.59375 694.496094 L 403.097656 694.496094 L 403.097656 666.742188 L 319.839844 666.742188 Z M 319.839844 694.496094 " fill-opacity="1" fill-rule="nonzero"/><path fill="#fdba74" d="M 375.34375 722.246094 L 403.097656 722.246094 L 403.097656 750 L 375.34375 750 Z M 375.34375 722.246094 " fill-opacity="1" fill-rule="nonzero"/><path fill="#fdba74" d="M 375.34375 805.503906 L 403.097656 805.503906 L 403.097656 833.253906 L 375.34375 833.253906 Z M 375.34375 805.503906 " fill-opacity="1" fill-rule="nonzero"/><path fill="#fdba74" d="M 319.839844 861.007812 L 375.34375 861.007812 L 375.34375 888.757812 L 319.839844 888.757812 Z M 319.839844 861.007812 " fill-opacity="1" fill-rule="nonzero"/><path fill="#fdba74" d="M 375.34375 888.757812 L 403.097656 888.757812 L 403.097656 916.511719 L 375.34375 916.511719 Z M 375.34375 888.757812 " fill-opacity="1" fill-rule="nonzero"/><path fill="#fdba74" d="M 236.585938 833.253906 L 319.839844 833.253906 L 319.839844 861.007812 L 236.585938 861.007812 Z M 236.585938 833.253906 " fill-opacity="1" fill-rule="nonzero"/><path fill="#fdba74" d="M 541.855469 833.253906 L 625.113281 833.253906 L 625.113281 861.007812 L 541.855469 861.007812 Z M 541.855469 833.253906 " fill-opacity="1" fill-rule="nonzero"/><path fill="#fdba74" d="M 625.113281 861.007812 L 680.617188 861.007812 L 680.617188 888.757812 L 625.113281 888.757812 Z M 625.113281 861.007812 " fill-opacity="1" fill-rule="nonzero"/><path fill="#fdba74" d="M 680.617188 888.757812 L 708.367188 888.757812 L 708.367188 916.511719 L 680.617188 916.511719 Z M 680.617188 888.757812 " fill-opacity="1" fill-rule="nonzero"/><path fill="#fdba74" d="M 874.878906 694.496094 L 930.382812 694.496094 L 930.382812 722.246094 L 874.878906 722.246094 Z M 874.878906 694.496094 " fill-opacity="1" fill-rule="nonzero"/><path fill="#fdba74" d="M 597.359375 583.488281 L 625.113281 583.488281 L 625.113281 638.992188 L 597.359375 638.992188 Z M 597.359375 583.488281 " fill-opacity="1" fill-rule="nonzero"/><path fill="#fdba74" d="M 569.609375 638.992188 L 597.359375 638.992188 L 597.359375 666.742188 L 569.609375 666.742188 Z M 569.609375 638.992188 " fill-opacity="1" fill-rule="nonzero"/><path fill="#fdba74" d="M 652.863281 666.742188 L 708.367188 666.742188 L 708.367188 694.496094 L 652.863281 694.496094 Z M 652.863281 666.742188 " fill-opacity="1" fill-rule="nonzero"/><path fill="#fdba74" d="M 625.113281 694.496094 L 652.863281 694.496094 L 652.863281 722.246094 L 625.113281 722.246094 Z M 625.113281 694.496094 " fill-opacity="1" fill-rule="nonzero"/><path fill="#fdba74" d="M 1096.894531 916.511719 L 1124.648438 916.511719 L 1124.648438 944.261719 L 1096.894531 944.261719 Z M 1096.894531 916.511719 " fill-opacity="1" fill-rule="nonzero"/><path fill="#fdba74" d="M 902.632812 805.503906 L 930.382812 805.503906 L 930.382812 861.007812 L 902.632812 861.007812 Z M 902.632812 805.503906 " fill-opacity="1" fill-rule="nonzero"/><path fill="#fdba74" d="M 930.382812 861.007812 L 958.136719 861.007812 L 958.136719 888.757812 L 930.382812 888.757812 Z M 930.382812 861.007812 " fill-opacity="1" fill-rule="nonzero"/><path fill="#fdba74" d="M 791.625 555.734375 L 819.375 555.734375 L 819.375 583.488281 L 791.625 583.488281 Z M 791.625 555.734375 " fill-opacity="1" fill-rule="nonzero"/><path fill="#fdba74" d="M 708.367188 916.511719 L 736.121094 916.511719 L 736.121094 944.261719 L 708.367188 944.261719 Z M 708.367188 916.511719 " fill-opacity="1" fill-rule="nonzero"/><path fill="#fdba74" d="M 736.121094 944.261719 L 763.871094 944.261719 L 763.871094 972.015625 L 736.121094 972.015625 Z M 736.121094 944.261719 " fill-opacity="1" fill-rule="nonzero"/></svg>